<svg width="116" height="40" viewBox="0 0 116 40" fill="none" xmlns="http://www.w3.org/2000/svg">
<rect width="116" height="40" rx="5" fill="#3F69FF"/>
<path d="M44.1006 13.9785H45.4268V18.3672C46.0329 18.3672 46.459 18.251 46.7051 18.0186C46.9512 17.7816 47.2656 17.2165 47.6484 16.3232C47.9264 15.667 48.1543 15.2044 48.332 14.9355C48.5143 14.6621 48.7718 14.4342 49.1045 14.252C49.4372 14.0651 49.804 13.9717 50.2051 13.9717C50.7155 13.9717 50.9844 13.9762 51.0117 13.9854V15.1338C50.9661 15.1338 50.8773 15.1315 50.7451 15.127C50.5993 15.1224 50.5104 15.1201 50.4785 15.1201C50.0547 15.1201 49.7402 15.2227 49.5352 15.4277C49.3255 15.6328 49.0863 16.0703 48.8174 16.7402C48.4801 17.5879 48.1953 18.1234 47.9629 18.3467C47.7305 18.5654 47.4525 18.7409 47.1289 18.873C47.776 19.0508 48.4141 19.6478 49.043 20.6641L51.1074 24H49.46L47.7852 21.2793C47.3249 20.5273 46.9398 20.0124 46.6299 19.7344C46.32 19.4518 45.9189 19.3105 45.4268 19.3105V24H44.1006V13.9785ZM56.8223 23.1045C56.3665 23.4919 55.9268 23.7653 55.5029 23.9248C55.0837 24.0843 54.6325 24.1641 54.1494 24.1641C53.3519 24.1641 52.7389 23.9704 52.3105 23.583C51.8822 23.1911 51.668 22.6921 51.668 22.0859C51.668 21.7305 51.7477 21.4069 51.9072 21.1152C52.0713 20.819 52.2832 20.582 52.543 20.4043C52.8073 20.2266 53.1035 20.0921 53.4316 20.001C53.6732 19.9372 54.0378 19.8757 54.5254 19.8164C55.5189 19.6979 56.2503 19.5566 56.7197 19.3926C56.7243 19.224 56.7266 19.1169 56.7266 19.0713C56.7266 18.57 56.6104 18.2168 56.3779 18.0117C56.0635 17.7337 55.5964 17.5947 54.9766 17.5947C54.3978 17.5947 53.9694 17.6973 53.6914 17.9023C53.418 18.1029 53.2152 18.4606 53.083 18.9756L51.8799 18.8115C51.9893 18.2965 52.1693 17.8818 52.4199 17.5674C52.6706 17.2484 53.0329 17.0046 53.5068 16.8359C53.9808 16.6628 54.5299 16.5762 55.1543 16.5762C55.7741 16.5762 56.2777 16.6491 56.665 16.7949C57.0524 16.9408 57.3372 17.1253 57.5195 17.3486C57.7018 17.5674 57.8294 17.8454 57.9023 18.1826C57.9434 18.3923 57.9639 18.7705 57.9639 19.3174V20.958C57.9639 22.1019 57.9889 22.8265 58.0391 23.1318C58.0938 23.4326 58.1986 23.722 58.3535 24H57.0684C56.9408 23.7448 56.8587 23.4463 56.8223 23.1045ZM56.7197 20.3564C56.2731 20.5387 55.6032 20.6937 54.71 20.8213C54.2041 20.8942 53.8464 20.9762 53.6367 21.0674C53.4271 21.1585 53.2653 21.293 53.1514 21.4707C53.0374 21.6439 52.9805 21.8376 52.9805 22.0518C52.9805 22.3799 53.1035 22.6533 53.3496 22.8721C53.6003 23.0908 53.9648 23.2002 54.4434 23.2002C54.9173 23.2002 55.3389 23.0977 55.708 22.8926C56.0771 22.6829 56.3483 22.3981 56.5215 22.0381C56.6536 21.7601 56.7197 21.3499 56.7197 20.8076V20.3564ZM58.9004 16.7402H64.7998V17.7588H62.4619V24H61.2383V17.7588H58.9004V16.7402ZM70.5488 23.1045C70.0931 23.4919 69.6533 23.7653 69.2295 23.9248C68.8102 24.0843 68.359 24.1641 67.876 24.1641C67.0785 24.1641 66.4655 23.9704 66.0371 23.583C65.6087 23.1911 65.3945 22.6921 65.3945 22.0859C65.3945 21.7305 65.4743 21.4069 65.6338 21.1152C65.7979 20.819 66.0098 20.582 66.2695 20.4043C66.5339 20.2266 66.8301 20.0921 67.1582 20.001C67.3997 19.9372 67.7643 19.8757 68.252 19.8164C69.2454 19.6979 69.9769 19.5566 70.4463 19.3926C70.4508 19.224 70.4531 19.1169 70.4531 19.0713C70.4531 18.57 70.3369 18.2168 70.1045 18.0117C69.79 17.7337 69.3229 17.5947 68.7031 17.5947C68.1243 17.5947 67.696 17.6973 67.418 17.9023C67.1445 18.1029 66.9417 18.4606 66.8096 18.9756L65.6064 18.8115C65.7158 18.2965 65.8958 17.8818 66.1465 17.5674C66.3971 17.2484 66.7594 17.0046 67.2334 16.8359C67.7074 16.6628 68.2565 16.5762 68.8809 16.5762C69.5007 16.5762 70.0042 16.6491 70.3916 16.7949C70.779 16.9408 71.0638 17.1253 71.2461 17.3486C71.4284 17.5674 71.556 17.8454 71.6289 18.1826C71.6699 18.3923 71.6904 18.7705 71.6904 19.3174V20.958C71.6904 22.1019 71.7155 22.8265 71.7656 23.1318C71.8203 23.4326 71.9251 23.722 72.0801 24H70.7949C70.6673 23.7448 70.5853 23.4463 70.5488 23.1045ZM70.4463 20.3564C69.9997 20.5387 69.3298 20.6937 68.4365 20.8213C67.9307 20.8942 67.5729 20.9762 67.3633 21.0674C67.1536 21.1585 66.9919 21.293 66.8779 21.4707C66.764 21.6439 66.707 21.8376 66.707 22.0518C66.707 22.3799 66.8301 22.6533 67.0762 22.8721C67.3268 23.0908 67.6914 23.2002 68.1699 23.2002C68.6439 23.2002 69.0654 23.0977 69.4346 22.8926C69.8037 22.6829 70.0749 22.3981 70.248 22.0381C70.3802 21.7601 70.4463 21.3499 70.4463 20.8076V20.3564ZM74.2061 16.7402H79.9209V24H78.6973V17.7588H75.4365V21.375C75.4365 22.2181 75.4092 22.7741 75.3545 23.043C75.2998 23.3118 75.1494 23.5465 74.9033 23.7471C74.6572 23.9476 74.3018 24.0479 73.8369 24.0479C73.5498 24.0479 73.2194 24.0296 72.8457 23.9932V22.9678H73.3857C73.641 22.9678 73.8232 22.9427 73.9326 22.8926C74.042 22.8379 74.1149 22.7536 74.1514 22.6396C74.1878 22.5257 74.2061 22.1543 74.2061 21.5254V16.7402ZM81.4863 20.3701C81.4863 19.0257 81.86 18.0299 82.6074 17.3828C83.2318 16.8451 83.9928 16.5762 84.8906 16.5762C85.8887 16.5762 86.7044 16.9043 87.3379 17.5605C87.9714 18.2122 88.2881 19.1146 88.2881 20.2676C88.2881 21.2018 88.1468 21.9378 87.8643 22.4756C87.5863 23.0088 87.1784 23.4235 86.6406 23.7197C86.1074 24.016 85.5241 24.1641 84.8906 24.1641C83.8743 24.1641 83.0518 23.8382 82.4229 23.1865C81.7985 22.5348 81.4863 21.596 81.4863 20.3701ZM82.751 20.3701C82.751 21.2998 82.9538 21.9971 83.3594 22.4619C83.765 22.9222 84.2754 23.1523 84.8906 23.1523C85.5013 23.1523 86.0094 22.9199 86.415 22.4551C86.8206 21.9902 87.0234 21.2816 87.0234 20.3291C87.0234 19.4313 86.8184 18.7523 86.4082 18.292C86.0026 17.8271 85.4967 17.5947 84.8906 17.5947C84.2754 17.5947 83.765 17.8249 83.3594 18.2852C82.9538 18.7454 82.751 19.4404 82.751 20.3701ZM89.7441 16.7402H93.9209V17.7588H90.9746V24H89.7441V16.7402Z" fill="white"/>
<path d="M33.2969 19.2969H16.7031C16.3148 19.2969 16 19.6117 16 20C16 20.3883 16.3148 20.7031 16.7031 20.7031H33.2969C33.6852 20.7031 34 20.3883 34 20C34 19.6117 33.6852 19.2969 33.2969 19.2969Z" fill="white"/>
<path d="M33.2969 13.6719H16.7031C16.3148 13.6719 16 13.9867 16 14.375C16 14.7633 16.3148 15.0781 16.7031 15.0781H33.2969C33.6852 15.0781 34 14.7633 34 14.375C34 13.9867 33.6852 13.6719 33.2969 13.6719Z" fill="white"/>
<path d="M33.2969 24.9219H16.7031C16.3148 24.9219 16 25.2367 16 25.625C16 26.0133 16.3148 26.3281 16.7031 26.3281H33.2969C33.6852 26.3281 34 26.0133 34 25.625C34 25.2367 33.6852 24.9219 33.2969 24.9219Z" fill="white"/>
</svg>
