<svg width="53" height="45" viewBox="0 0 53 45" fill="none" xmlns="http://www.w3.org/2000/svg">
<g clip-path="url(#clip0_0_211)">
<path d="M23.0914 31.1354C23.1486 31.1444 23.2055 31.1487 23.2616 31.1487C23.7549 31.1487 24.1903 30.8144 24.2741 30.3426L25.3018 24.5554C25.3951 24.03 25.0169 23.533 24.457 23.4455C23.8971 23.3576 23.3676 23.7128 23.2743 24.2383L22.2466 30.0254C22.1533 30.5509 22.5315 31.0479 23.0914 31.1354Z" fill="black"/>
<path d="M10.8733 30.3428C10.9571 30.8145 11.3925 31.1489 11.8858 31.1489C11.9419 31.1489 11.9988 31.1446 12.056 31.1356C12.6159 31.048 12.9941 30.5511 12.9008 30.0256L11.8731 24.2385C11.7798 23.713 11.2504 23.3581 10.6904 23.4456C10.1305 23.5332 9.75231 24.0301 9.84563 24.5556L10.8733 30.3428Z" fill="black"/>
<path d="M34.0512 15.7163H30.4343L22.5213 6.43305C22.1668 6.01721 21.5201 5.94963 21.0768 6.28246C20.6336 6.61522 20.5617 7.22216 20.9164 7.63813L27.8022 15.7163H7.27676L14.1626 7.63813C14.5172 7.22216 14.4453 6.61515 14.0022 6.28246C13.5589 5.94963 12.9122 6.01715 12.5577 6.43305L4.6446 15.7163H1.0277C0.460137 15.7163 0 16.1481 0 16.6808V20.5389C0 21.0716 0.460137 21.5034 1.0277 21.5034H2.30795L6.20582 34.3072C6.33182 34.7213 6.73509 35.0068 7.19392 35.0068H27.885C28.3439 35.0068 28.7471 34.7213 28.8732 34.3072L32.771 21.5034H34.0512C34.6188 21.5034 35.0789 21.0716 35.0789 20.5389V16.6808C35.0789 16.1481 34.6188 15.7163 34.0512 15.7163ZM27.1099 33.0777H7.96909L4.44557 21.5034H30.6334L27.1099 33.0777ZM33.0235 19.5744C29.503 19.5744 5.39065 19.5744 2.05541 19.5744V17.6453H33.0235V19.5744Z" fill="black"/>
<path d="M17.5395 31.1486C18.1071 31.1486 18.5672 30.7167 18.5672 30.184V24.3969C18.5672 23.8642 18.1071 23.4324 17.5395 23.4324C16.9719 23.4324 16.5118 23.8642 16.5118 24.3969V30.184C16.5118 30.7168 16.9719 31.1486 17.5395 31.1486Z" fill="black"/>
</g>
<g filter="url(#filter0_d_0_211)">
<ellipse cx="29.9869" cy="16.2132" rx="13.0132" ry="12.2132" fill="white"/>
</g>
<path d="M28.3224 14.8726H29.5441C30.3117 14.8608 30.9152 14.6587 31.3547 14.2661C31.7941 13.8735 32.0139 13.3433 32.0139 12.6753C32.0139 11.1753 31.2668 10.4253 29.7726 10.4253C29.0695 10.4253 28.507 10.6274 28.0851 11.0317C27.6691 11.4302 27.4611 11.9604 27.4611 12.6226H25.8351C25.8351 11.6089 26.2043 10.7681 26.9426 10.1001C27.6867 9.42627 28.6301 9.08936 29.7726 9.08936C30.9797 9.08936 31.926 9.40869 32.6115 10.0474C33.2971 10.686 33.6398 11.5737 33.6398 12.7104C33.6398 13.2671 33.4582 13.8062 33.0949 14.3276C32.7375 14.8491 32.2482 15.2388 31.6271 15.4966C32.3303 15.7192 32.8723 16.0884 33.2531 16.604C33.6398 17.1196 33.8332 17.7495 33.8332 18.4937C33.8332 19.6421 33.4582 20.5532 32.7082 21.2271C31.9582 21.9009 30.9826 22.2378 29.7814 22.2378C28.5803 22.2378 27.6017 21.9126 26.8459 21.2622C26.0959 20.6118 25.7209 19.7534 25.7209 18.687H27.3557C27.3557 19.3608 27.5754 19.8999 28.0148 20.3042C28.4543 20.7085 29.0432 20.9106 29.7814 20.9106C30.5666 20.9106 31.1672 20.7056 31.5832 20.2954C31.9992 19.8853 32.2072 19.2964 32.2072 18.5288C32.2072 17.7847 31.9787 17.2134 31.5217 16.8149C31.0646 16.4165 30.4055 16.2114 29.5441 16.1997H28.3224V14.8726Z" fill="black"/>
<defs>
<filter id="filter0_d_0_211" x="6.97369" y="0" width="46.0263" height="44.4263" filterUnits="userSpaceOnUse" color-interpolation-filters="sRGB">
<feFlood flood-opacity="0" result="BackgroundImageFix"/>
<feColorMatrix in="SourceAlpha" type="matrix" values="0 0 0 0 0 0 0 0 0 0 0 0 0 0 0 0 0 0 127 0" result="hardAlpha"/>
<feOffset dy="6"/>
<feGaussianBlur stdDeviation="5"/>
<feColorMatrix type="matrix" values="0 0 0 0 0 0 0 0 0 0 0 0 0 0 0 0 0 0 0.22 0"/>
<feBlend mode="normal" in2="BackgroundImageFix" result="effect1_dropShadow_0_211"/>
<feBlend mode="normal" in="SourceGraphic" in2="effect1_dropShadow_0_211" result="shape"/>
</filter>
<clipPath id="clip0_0_211">
<rect width="35.0789" height="32.9224" fill="white" transform="translate(0 4.07764)"/>
</clipPath>
</defs>
</svg>
