<svg width="204" height="43" viewBox="0 0 204 43" fill="none" xmlns="http://www.w3.org/2000/svg">
<rect width="204" height="43" rx="5" fill="#3F69FF"/>
<path d="M35.791 27H33.6992V16.6074H28.3784V27H26.2866V14.9141H35.791V27ZM42.0913 27.166C40.813 27.166 39.7754 26.7648 38.9785 25.9624C38.1872 25.1545 37.7915 24.0809 37.7915 22.7417V22.4927C37.7915 21.5962 37.9631 20.7965 38.3062 20.0938C38.6548 19.3854 39.1418 18.8348 39.7671 18.4419C40.3924 18.049 41.0897 17.8525 41.8589 17.8525C43.0819 17.8525 44.0254 18.2427 44.6895 19.0229C45.359 19.8032 45.6938 20.9072 45.6938 22.335V23.1484H39.8252C39.8861 23.89 40.1323 24.4766 40.564 24.9082C41.0011 25.3398 41.549 25.5557 42.2075 25.5557C43.1317 25.5557 43.8843 25.1821 44.4653 24.4351L45.5527 25.4727C45.193 26.0094 44.7116 26.4272 44.1084 26.7261C43.5107 27.0194 42.8384 27.166 42.0913 27.166ZM41.8506 19.4712C41.2972 19.4712 40.849 19.6649 40.5059 20.0522C40.1683 20.4396 39.9525 20.9792 39.8584 21.6709H43.7017V21.5215C43.6574 20.8464 43.4775 20.3372 43.1621 19.9941C42.8467 19.6455 42.4095 19.4712 41.8506 19.4712ZM55.1318 22.6006C55.1318 23.9896 54.8164 25.0991 54.1855 25.9292C53.5547 26.7537 52.708 27.166 51.6455 27.166C50.6605 27.166 49.8719 26.8423 49.2798 26.1948V30.4531H47.2627V18.0186H49.1221L49.2051 18.9316C49.7972 18.2122 50.6024 17.8525 51.6206 17.8525C52.7163 17.8525 53.5741 18.262 54.1938 19.0811C54.8192 19.8945 55.1318 21.0262 55.1318 22.4761V22.6006ZM53.123 22.4263C53.123 21.5298 52.9432 20.8187 52.5835 20.293C52.2293 19.7673 51.7202 19.5044 51.0562 19.5044C50.2316 19.5044 49.6395 19.8447 49.2798 20.5254V24.5098C49.645 25.207 50.2427 25.5557 51.0728 25.5557C51.7147 25.5557 52.2155 25.2983 52.5752 24.7837C52.9404 24.2635 53.123 23.4777 53.123 22.4263ZM60.8013 27.166C59.5229 27.166 58.4854 26.7648 57.6885 25.9624C56.8971 25.1545 56.5015 24.0809 56.5015 22.7417V22.4927C56.5015 21.5962 56.673 20.7965 57.0161 20.0938C57.3647 19.3854 57.8517 18.8348 58.4771 18.4419C59.1024 18.049 59.7996 17.8525 60.5688 17.8525C61.7918 17.8525 62.7354 18.2427 63.3994 19.0229C64.069 19.8032 64.4038 20.9072 64.4038 22.335V23.1484H58.5352C58.596 23.89 58.8423 24.4766 59.2739 24.9082C59.7111 25.3398 60.259 25.5557 60.9175 25.5557C61.8416 25.5557 62.5942 25.1821 63.1753 24.4351L64.2627 25.4727C63.903 26.0094 63.4215 26.4272 62.8184 26.7261C62.2207 27.0194 61.5483 27.166 60.8013 27.166ZM60.5605 19.4712C60.0072 19.4712 59.5589 19.6649 59.2158 20.0522C58.8783 20.4396 58.6624 20.9792 58.5684 21.6709H62.4116V21.5215C62.3674 20.8464 62.1875 20.3372 61.8721 19.9941C61.5566 19.6455 61.1195 19.4712 60.5605 19.4712ZM71.584 18.0186H73.5928V27H71.584V21.0068L68.0645 27H66.0557V18.0186H68.0645V24.0117L71.584 18.0186ZM72.5303 14.5737C72.5303 15.271 72.2868 15.8354 71.7998 16.2671C71.3128 16.6987 70.6626 16.9146 69.8491 16.9146C69.0356 16.9146 68.3854 16.6987 67.8984 16.2671C67.4115 15.8354 67.168 15.271 67.168 14.5737H68.6787C68.6787 14.939 68.7811 15.224 68.9858 15.4287C69.1961 15.6279 69.4839 15.7275 69.8491 15.7275C70.2144 15.7275 70.4993 15.6279 70.7041 15.4287C70.9089 15.224 71.0112 14.939 71.0112 14.5737H72.5303ZM82.8066 19.6206H79.8931V27H77.876V19.6206H74.9956V18.0186H82.8066V19.6206ZM89.7627 18.0186H91.7715V27H89.7627V21.0068L86.2432 27H84.2344V18.0186H86.2432V24.0117L89.7627 18.0186ZM98.3042 27V18.0186H101.948C103.177 18.0186 104.112 18.2344 104.754 18.666C105.396 19.0921 105.717 19.7064 105.717 20.5088C105.717 20.9238 105.587 21.2974 105.327 21.6294C105.072 21.9559 104.693 22.2077 104.189 22.3848C104.776 22.5065 105.241 22.7528 105.584 23.1235C105.927 23.4943 106.099 23.9315 106.099 24.4351C106.099 25.2707 105.789 25.9071 105.169 26.3442C104.555 26.7814 103.669 27 102.513 27H98.3042ZM100.321 23.1733V25.4062H102.529C103.564 25.4062 104.082 25.0355 104.082 24.2939C104.082 23.5469 103.556 23.1733 102.504 23.1733H100.321ZM100.321 21.729H101.981C103.127 21.729 103.7 21.3914 103.7 20.7163C103.7 20.008 103.157 19.6427 102.073 19.6206H100.321V21.729ZM115.271 23.4473H114.25V27H112.233V18.0186H114.25V21.6045H115.138L117.62 18.0186H120.11L116.865 22.3184L120.384 27H117.761L115.271 23.4473ZM126.859 27C126.77 26.8285 126.693 26.549 126.626 26.1616C125.985 26.8312 125.199 27.166 124.269 27.166C123.367 27.166 122.631 26.9087 122.061 26.394C121.491 25.8794 121.206 25.243 121.206 24.4849C121.206 23.5275 121.56 22.7943 122.269 22.2852C122.982 21.7705 124.001 21.5132 125.323 21.5132H126.56V20.9238C126.56 20.459 126.43 20.0882 126.17 19.8115C125.91 19.5293 125.514 19.3882 124.983 19.3882C124.524 19.3882 124.147 19.5044 123.854 19.7368C123.561 19.9637 123.414 20.2542 123.414 20.6084H121.397C121.397 20.1159 121.56 19.6566 121.887 19.2305C122.213 18.7988 122.656 18.4613 123.215 18.2178C123.779 17.9743 124.407 17.8525 125.099 17.8525C126.151 17.8525 126.989 18.1182 127.614 18.6494C128.24 19.1751 128.561 19.9167 128.577 20.874V24.9248C128.577 25.7327 128.691 26.3774 128.917 26.8589V27H126.859ZM124.643 25.5474C125.041 25.5474 125.415 25.4505 125.763 25.2568C126.117 25.0632 126.383 24.8031 126.56 24.4766V22.7832H125.473C124.726 22.7832 124.164 22.9132 123.788 23.1733C123.411 23.4334 123.223 23.8014 123.223 24.2773C123.223 24.6647 123.35 24.9746 123.605 25.207C123.865 25.4339 124.211 25.5474 124.643 25.5474ZM137.625 19.6206H134.711V27H132.694V19.6206H129.814V18.0186H137.625V19.6206ZM144.208 27C144.119 26.8285 144.042 26.549 143.975 26.1616C143.333 26.8312 142.547 27.166 141.618 27.166C140.716 27.166 139.98 26.9087 139.41 26.394C138.84 25.8794 138.555 25.243 138.555 24.4849C138.555 23.5275 138.909 22.7943 139.617 22.2852C140.331 21.7705 141.349 21.5132 142.672 21.5132H143.909V20.9238C143.909 20.459 143.779 20.0882 143.519 19.8115C143.258 19.5293 142.863 19.3882 142.332 19.3882C141.872 19.3882 141.496 19.5044 141.203 19.7368C140.909 19.9637 140.763 20.2542 140.763 20.6084H138.746C138.746 20.1159 138.909 19.6566 139.235 19.2305C139.562 18.7988 140.005 18.4613 140.563 18.2178C141.128 17.9743 141.756 17.8525 142.448 17.8525C143.499 17.8525 144.338 18.1182 144.963 18.6494C145.588 19.1751 145.909 19.9167 145.926 20.874V24.9248C145.926 25.7327 146.039 26.3774 146.266 26.8589V27H144.208ZM141.991 25.5474C142.39 25.5474 142.763 25.4505 143.112 25.2568C143.466 25.0632 143.732 24.8031 143.909 24.4766V22.7832H142.821C142.074 22.7832 141.513 22.9132 141.136 23.1733C140.76 23.4334 140.572 23.8014 140.572 24.2773C140.572 24.6647 140.699 24.9746 140.954 25.207C141.214 25.4339 141.56 25.5474 141.991 25.5474ZM155.671 18.0186V27H153.654V19.6455H151.114L150.948 22.7749C150.843 24.2801 150.552 25.362 150.076 26.0205C149.606 26.6735 148.884 27 147.91 27H147.287L147.279 25.3232L147.694 25.2817C148.137 25.2209 148.458 24.9525 148.657 24.4766C148.861 23.9951 148.992 23.1208 149.047 21.8535L149.213 18.0186H155.671ZM157.439 22.4263C157.439 21.5464 157.613 20.755 157.962 20.0522C158.311 19.3439 158.8 18.8016 159.431 18.4253C160.062 18.0435 160.787 17.8525 161.606 17.8525C162.818 17.8525 163.8 18.2427 164.553 19.0229C165.311 19.8032 165.72 20.8381 165.781 22.1274L165.79 22.6006C165.79 23.486 165.618 24.2773 165.275 24.9746C164.937 25.6719 164.45 26.2114 163.814 26.5933C163.183 26.9751 162.453 27.166 161.623 27.166C160.355 27.166 159.34 26.7454 158.576 25.9043C157.818 25.0576 157.439 23.9315 157.439 22.5259V22.4263ZM159.456 22.6006C159.456 23.5247 159.647 24.2497 160.029 24.7754C160.411 25.2956 160.942 25.5557 161.623 25.5557C162.303 25.5557 162.832 25.29 163.208 24.7588C163.59 24.2275 163.781 23.45 163.781 22.4263C163.781 21.5187 163.584 20.7993 163.191 20.2681C162.804 19.7368 162.276 19.4712 161.606 19.4712C160.947 19.4712 160.424 19.734 160.037 20.2598C159.65 20.7799 159.456 21.5602 159.456 22.6006ZM173.476 19.6455H169.575V27H167.566V18.0186H173.476V19.6455Z" fill="white"/>
</svg>
