<svg width="88" height="92" viewBox="0 0 88 92" fill="none" xmlns="http://www.w3.org/2000/svg">
<path d="M71.2902 71.277V30.5679L17.5531 33.3697V74.0788C17.5529 75.0117 17.9326 75.9444 18.6919 76.4775L39.9794 91.4214C41.4934 92.4843 43.3586 92.4843 44.8726 91.4214L70.1513 73.6757C70.9107 73.1428 71.2904 72.2099 71.2902 71.277Z" fill="url(#paint0_linear_0_198)"/>
<path d="M86.6808 40.4068L74.0214 31.5197C73.6037 31.2265 73.6022 30.4942 74.0185 30.1983L86.8613 21.0703C88.352 20.0239 88.3857 17.4223 86.9228 16.3192L66.4644 0.89327C64.9319 -0.262204 63.0009 -0.299194 61.4393 0.797137L48.5455 9.95901C47.3722 10.7929 45.9212 10.7975 44.7442 9.97113L31.8556 0.923364C30.0466 -0.346634 27.8097 -0.303792 26.0344 1.03475L2.33522 18.9044C0.640707 20.1821 0.679723 23.1959 2.40655 24.4082L14.2481 32.721C14.6666 33.0146 14.6671 33.7487 14.2493 34.0436L1.13863 43.2933C-0.379543 44.3591 -0.379543 47.0234 1.13863 48.0893L22.4269 63.0337C23.9408 64.0964 25.806 64.0964 27.3198 63.0337L39.7345 54.2752C40.9064 53.4485 42.3524 53.4466 43.5258 54.2702L56.3525 63.2745C58.1061 64.5056 60.2667 64.5056 62.0205 63.2745L86.6812 45.9626C88.4395 44.7277 88.4395 41.6413 86.6808 40.4068Z" fill="url(#paint1_linear_0_198)"/>
<path d="M18.6919 30.9716L43.9705 13.2259C45.4846 12.163 47.3498 12.163 48.8638 13.2259L70.1512 28.1697C71.6698 29.2358 71.6698 31.9005 70.1512 32.9665L44.8725 50.7122C43.3585 51.7751 41.4933 51.7751 39.9793 50.7122L18.6919 35.7684C17.1735 34.7024 17.1735 32.0376 18.6919 30.9716Z" fill="url(#paint2_linear_0_198)"/>
<path d="M69.4916 66.5068L67.1037 62.1516L64.7157 69.8594L65.9731 68.9766V71.5877L68.2342 70.0004V67.3894L69.4916 66.5068Z" fill="#5D3645"/>
<path d="M69.4916 69.7732L64.7157 73.1259V74.5383L69.4916 71.1855V69.7732Z" fill="#5D3645"/>
<defs>
<linearGradient id="paint0_linear_0_198" x1="38.131" y1="61.3933" x2="45.5129" y2="61.3933" gradientUnits="userSpaceOnUse">
<stop stop-color="#CC8241"/>
<stop offset="1" stop-color="#DEA861"/>
</linearGradient>
<linearGradient id="paint1_linear_0_198" x1="0.272723" y1="-0.371295" x2="77.1436" y2="38.185" gradientUnits="userSpaceOnUse">
<stop stop-color="#DEA861"/>
<stop offset="0.328" stop-color="#E3B67B"/>
<stop offset="0.7518" stop-color="#E9C596"/>
<stop offset="1" stop-color="#EBCBA0"/>
</linearGradient>
<linearGradient id="paint2_linear_0_198" x1="52.0423" y1="31.9691" x2="27.1557" y2="31.9691" gradientUnits="userSpaceOnUse">
<stop stop-color="#CC8241"/>
<stop offset="1" stop-color="#DEA861"/>
</linearGradient>
</defs>
</svg>
