<svg width="35" height="35" viewBox="0 0 35 35" fill="none" xmlns="http://www.w3.org/2000/svg">
<g clip-path="url(#clip0_22_73)">
<path d="M29.925 5.02979C26.6 1.81562 22.225 0 17.5656 0C4.19271 0 -4.20438 14.4885 2.47333 26.0138L0 35L9.23854 32.5908C13.2635 34.7652 16.5608 34.5727 17.5744 34.701C33.0808 34.701 40.7998 15.941 29.9031 5.08667L29.925 5.02979Z" fill="#ECEFF1"/>
<path d="M17.5977 31.7204L17.589 31.7189H17.5656C12.9252 31.7189 9.96043 29.5212 9.66876 29.3944L4.20001 30.8162L5.66564 25.5006L5.3171 24.9537C3.87335 22.6554 3.10626 20.0085 3.10626 17.2829C3.10626 4.45977 18.7761 -1.95252 27.844 7.11102C36.89 16.0798 30.539 31.7204 17.5977 31.7204Z" fill="#4CAF50"/>
<path d="M25.5311 20.8644L25.5179 20.9738C25.079 20.755 22.9411 19.7094 22.5429 19.565C21.649 19.234 21.9013 19.5125 20.1848 21.4784C19.9296 21.7628 19.6759 21.7846 19.2427 21.5878C18.8052 21.369 17.4009 20.9096 15.7384 19.4221C14.4434 18.2628 13.5742 16.8409 13.3175 16.4034C12.8902 15.6655 13.7842 15.5605 14.5979 14.0205C14.7438 13.7142 14.6694 13.4736 14.5615 13.2563C14.4521 13.0375 13.5815 10.8938 13.2169 10.0392C12.8669 9.18754 12.5067 9.29546 12.2369 9.29546C11.3969 9.22254 10.7829 9.23421 10.2419 9.79713C7.88814 12.3842 8.48168 15.053 10.4956 17.8909C14.4536 23.0709 16.5623 24.0246 20.4181 25.3488C21.4594 25.6798 22.4088 25.6332 23.1598 25.5253C23.9969 25.3925 25.7367 24.4738 26.0998 23.4457C26.4717 22.4175 26.4717 21.5644 26.3623 21.3675C26.2544 21.1707 25.9686 21.0613 25.5311 20.8644Z" fill="#FAFAFA"/>
</g>
<defs>
<clipPath id="clip0_22_73">
<rect width="35" height="35" fill="white"/>
</clipPath>
</defs>
</svg>
